<svg width="720" height="600" viewBox="0 0 720 600" fill="none" xmlns="http://www.w3.org/2000/svg">
  <path d="M78 424C136 335 198 382 254 284C309 188 370 226 427 159C484 92 542 116 635 70" stroke="#D4DAE2" stroke-width="1.4"/>
  <path d="M78 424C139 455 196 423 254 443C312 463 367 428 427 373C486 319 550 343 635 281" stroke="#DDE1E7" stroke-width="1.4"/>
  <path d="M78 424C130 390 194 362 254 374C315 386 366 344 427 307C488 270 550 238 635 209" stroke="#C8D0DA" stroke-width="1.4"/>
  <path d="M78 424C143 345 199 322 254 307C312 292 369 287 427 240C487 192 550 179 635 139" stroke="#DDE1E7" stroke-width="1.4"/>
  <path d="M78 424C142 402 199 451 254 500C311 551 368 493 427 448C490 401 553 414 635 354" stroke="#D5DAE1" stroke-width="1.4"/>
  <path d="M78 424C134 301 195 244 254 220C315 196 369 183 427 174C489 164 551 139 635 70" stroke="#243B64" stroke-width="2"/>
  <circle cx="78" cy="424" r="5" fill="#243B64"/>
  <circle cx="254" cy="220" r="4.5" fill="#243B64"/>
  <circle cx="427" cy="174" r="4.5" fill="#243B64"/>
  <circle cx="635" cy="70" r="5" fill="#243B64"/>
  <circle cx="254" cy="307" r="3.5" fill="#AEB9C7"/>
  <circle cx="427" cy="307" r="3.5" fill="#AEB9C7"/>
  <circle cx="635" cy="209" r="3.5" fill="#AEB9C7"/>
  <circle cx="254" cy="374" r="3.5" fill="#C0C8D2"/>
  <circle cx="427" cy="373" r="3.5" fill="#C0C8D2"/>
  <circle cx="635" cy="281" r="3.5" fill="#C0C8D2"/>
  <path d="M78 548H220" stroke="#E1E5EA"/>
  <path d="M250 548H392" stroke="#E1E5EA"/>
  <path d="M422 548H564" stroke="#E1E5EA"/>
  <circle cx="78" cy="548" r="3" fill="#243B64"/>
  <circle cx="250" cy="548" r="3" fill="#C5CDD7"/>
  <circle cx="422" cy="548" r="3" fill="#C5CDD7"/>
</svg>
